<?xml version="1.0" encoding="UTF-8" standalone="no"?>
<!-- Created with Inkscape (http://www.inkscape.org/) -->

<svg
   version="1.1"
   id="svg2"
   xml:space="preserve"
   width="1000"
   height="666.66669"
   viewBox="0 0 1000 666.66669"
   sodipodi:docname="Background.eps"
   xmlns:inkscape="http://www.inkscape.org/namespaces/inkscape"
   xmlns:sodipodi="http://sodipodi.sourceforge.net/DTD/sodipodi-0.dtd"
   xmlns="http://www.w3.org/2000/svg"
   xmlns:svg="http://www.w3.org/2000/svg"><defs
     id="defs6" /><sodipodi:namedview
     id="namedview4"
     pagecolor="#ffffff"
     bordercolor="#666666"
     borderopacity="1.0"
     inkscape:pageshadow="2"
     inkscape:pageopacity="0.0"
     inkscape:pagecheckerboard="0" /><g
     id="g8"
     inkscape:groupmode="layer"
     inkscape:label="ink_ext_XXXXXX"
     transform="matrix(1.3333333,0,0,-1.3333333,0,666.66667)"><g
       id="g10"
       transform="scale(0.1)"><path
         d="M 0,0 H 7500 V 5000 H 0 Z"
         style="fill:#ffffff;fill-opacity:1;fill-rule:nonzero;stroke:none"
         id="path12" /><path
         d="m 4310,5000 c 190,-430 971.39,-638.87 1800,-420 1060,280 1230,-440 1300,-1090 68.06,-631.96 -490,-1340 90,-1720 V 5000 H 4310"
         style="fill:#ffe4dd;fill-opacity:1;fill-rule:nonzero;stroke:none"
         id="path14" /><path
         d="M 725.973,437.391 C 364.789,417.992 208.445,877.211 486.871,1063.98 765.289,1250.75 1451.63,1062.22 1517.45,844.559 1583.26,626.891 998.402,452.031 725.973,437.391"
         style="fill:#ffb8a4;fill-opacity:1;fill-rule:nonzero;stroke:none"
         id="path16" /><path
         d="m 937.48,623.332 c -109.195,87.5 -199.777,199.566 -253.707,329.316 -49.531,119.182 -77.972,287.332 -9.16,405.612 52.032,89.43 167.864,135.3 263.617,158.61 103.09,25.09 217.72,3.15 317.13,-28.44 250,-79.47 438.8,-276.11 575.19,-493.18 79.95,-127.219 182.08,-284.758 106.18,-436.918 -53.97,-108.223 -176.14,-174.73 -295.07,-168.973 -116.95,5.661 -234.74,33.352 -346.53,66.832 -126.28,37.809 -253.88,87.301 -359.169,168.321 -7.641,5.879 -15.121,-7.153 -7.566,-12.961 102.615,-78.961 226.925,-128.199 349.815,-165.91 112.2,-34.422 229.36,-61.68 346.7,-70.231 110.08,-8.019 215.09,33.492 287.21,119.352 99.08,117.937 70.31,260.437 2.67,385.617 -132.48,245.171 -316.25,481.421 -578.98,593.981 -201.49,86.31 -461.154,105.46 -632.658,-57.11 -102.863,-97.51 -94.937,-274.32 -58.351,-399.66 46.883,-160.629 152.547,-301.09 282.074,-404.871 7.461,-5.969 18.145,4.57 10.605,10.613"
         style="fill:#ffe4dd;fill-opacity:1;fill-rule:nonzero;stroke:none"
         id="path18" /><path
         d="m 3015,0 c 210,120 790,290 1470,0 H 3015"
         style="fill:#18a795;fill-opacity:1;fill-rule:nonzero;stroke:none"
         id="path20" /><path
         d="M -140,1220 C 62.5469,1105.52 30,70 990,260 1901.25,440.352 2500.37,124.699 2450,-60 2360,-390 -160,-140 -160,-140 l 20,1360"
         style="fill:#fc981f;fill-opacity:1;fill-rule:nonzero;stroke:none"
         id="path22" /><path
         d="M 8.46875,1613.56 C 287.793,2070.65 518.258,2511.01 414.766,2781.67 304.727,3069.47 0,3196.44 0,3196.44 L 8.46875,1613.56"
         style="fill:#ffe4dd;fill-opacity:1;fill-rule:nonzero;stroke:none"
         id="path24" /><path
         d="m 362.539,1639.67 c 3.594,13.88 13.43,25.29 27.016,30.21 9.004,3.26 5.117,17.77 -3.989,14.47 -18.519,-6.71 -32.531,-21.52 -37.492,-40.7 -2.414,-9.34 12.047,-13.34 14.465,-3.98"
         style="fill:#fc981f;fill-opacity:1;fill-rule:nonzero;stroke:none"
         id="path26" /><path
         d="m 562.527,1592.19 c 15.211,15.04 30.422,30.08 45.637,45.11 6.871,6.8 -3.734,17.41 -10.609,10.61 -15.211,-15.04 -30.422,-30.08 -45.629,-45.12 -6.875,-6.79 3.726,-17.4 10.601,-10.6"
         style="fill:#fc981f;fill-opacity:1;fill-rule:nonzero;stroke:none"
         id="path28" /><path
         d="m 597.348,2022.5 c 14.718,11.85 29.433,23.7 44.152,35.56 7.52,6.05 -3.156,16.6 -10.605,10.6 -14.719,-11.85 -29.442,-23.71 -44.157,-35.55 -7.515,-6.06 3.157,-16.62 10.61,-10.61"
         style="fill:#fc981f;fill-opacity:1;fill-rule:nonzero;stroke:none"
         id="path30" /><path
         d="m 597.348,1812.5 c 14.718,11.85 29.433,23.7 44.152,35.56 7.52,6.05 -3.156,16.6 -10.605,10.6 -14.719,-11.85 -29.442,-23.71 -44.157,-35.55 -7.515,-6.06 3.157,-16.62 10.61,-10.61"
         style="fill:#fc981f;fill-opacity:1;fill-rule:nonzero;stroke:none"
         id="path32" /><path
         d="m 10,3560 c 712.18,0 126.77,1270 1010,1270 220,0 840,-310 799.66,166.95 C 1809.18,5120.89 0,5000 0,5000 0,5000 -370,3560 10,3560"
         style="fill:#18a795;fill-opacity:1;fill-rule:nonzero;stroke:none"
         id="path34" /><path
         d="M 5340,0 C 5970,280 6353.2,653.359 7020,520 7193.49,485.301 7500,320 7500,0 H 5340"
         style="fill:#ffe4dd;fill-opacity:1;fill-rule:nonzero;stroke:none"
         id="path36" /><path
         d="m 6590,4430 c -280,20 -270,-260 -10,-390 168.05,-84.02 490,-300 550,-140 60,160 -229.35,507.81 -540,530"
         style="fill:#fc981f;fill-opacity:1;fill-rule:nonzero;stroke:none"
         id="path38" /><path
         d="m 7564.76,1801.39 c -91.31,-64.61 -213.01,-61.28 -308.26,-5.82 -97.39,56.71 -155.35,162.94 -178.8,270.31 -50.57,231.41 45.47,485.46 123.99,700.69 40.89,112.1 87.24,222.19 138.83,329.79 24.64,51.39 50.46,102.21 77.45,152.39 26.21,48.74 51.91,115.27 89.07,156.35 13.83,15.3 21.47,70.37 66.67,16.65 7.19,-8.54 8.56,-22.92 11.35,-33.83 7.88,-30.7 11.08,-64.07 15.99,-95.38 10.88,-69.4 20.14,-139.05 27.79,-208.88 13.34,-121.78 21.8,-244.08 25.4,-366.53 8.31,-283.05 -9.89,-566.35 -53.21,-846.15 -1.47,-9.45 12.98,-13.52 14.46,-3.99 45.01,290.72 63.28,585.1 52.79,879.14 -5.39,151.43 -18.27,302.56 -38.53,452.72 -8.63,63.93 -15.27,130.25 -30.22,193.06 -6.25,26.24 -19.16,66.54 -51.99,68.31 -37.02,2.01 -57.5,-54.07 -71.88,-78.46 -36.54,-62.02 -71.27,-125.11 -104.12,-189.16 -60.51,-118 -114.67,-239.27 -162.24,-363.05 -49.97,-130.08 -94.59,-263.46 -127.26,-399.01 -29.53,-122.55 -46.18,-251.83 -17.18,-376.13 26.33,-112.86 91.28,-224.1 196.94,-278.88 98.19,-50.92 218.77,-52.02 310.52,12.91 7.82,5.52 0.34,18.54 -7.56,12.95"
         style="fill:#fc981f;fill-opacity:1;fill-rule:nonzero;stroke:none"
         id="path40" /><path
         d="m 7865.12,4657.05 c -136.55,-67.24 -282.8,-108.68 -431.77,-137.76 -141.72,-27.66 -317.85,-70.27 -452.64,3.15 -59.07,32.17 -110.32,89.02 -123.82,156.35 -17.19,85.79 42.32,158.31 86.12,225.76 86.54,133.29 173.08,266.58 259.63,399.88 5.27,8.11 -7.72,15.64 -12.96,7.56 -103.58,-159.53 -214.11,-316.43 -311.19,-479.99 -66.58,-112.16 -38.46,-231.95 69.48,-306.91 125.91,-87.45 294.97,-55.19 435.36,-30.29 168.78,29.93 335.05,73.32 489.37,149.3 8.65,4.26 1.06,17.2 -7.58,12.95"
         style="fill:#fc5b23;fill-opacity:1;fill-rule:nonzero;stroke:none"
         id="path42" /><path
         d="m 6290,4490 c -53.28,-35.52 0,-130 80,-70 51.22,38.42 -20,110 -80,70"
         style="fill:#011d44;fill-opacity:1;fill-rule:nonzero;stroke:none"
         id="path44" /><path
         d="m 153.535,1257.52 c -36.164,-24.11 0,-88.24 54.309,-47.51 34.769,26.07 -13.582,74.66 -54.309,47.51"
         style="fill:#011d44;fill-opacity:1;fill-rule:nonzero;stroke:none"
         id="path46" /><path
         d="M 2690,550 C 2513.71,601.18 2360,130 2684.72,205.051 2934.46,262.77 3000,460 2690,550"
         style="fill:#fc5b23;fill-opacity:1;fill-rule:nonzero;stroke:none"
         id="path48" /><path
         d="m 5440,5170 c -179.38,-39 160,-430 400,-340 240,90 -170,390 -400,340"
         style="fill:#fc5b23;fill-opacity:1;fill-rule:nonzero;stroke:none"
         id="path50" /><path
         d="m 2360,5090 c -32.93,-263.58 1130,-410 1480,-10 212.7,243.09 -1480,10 -1480,10"
         style="fill:#fc981f;fill-opacity:1;fill-rule:nonzero;stroke:none"
         id="path52" /><path
         d="m 3199.23,4599.92 c 11.26,-4 22.53,-8.01 33.8,-12.01 9.11,-3.23 13.03,11.25 3.98,14.47 -11.26,4 -22.53,8 -33.79,12.01 -9.12,3.23 -13.04,-11.25 -3.99,-14.47"
         style="fill:#fc981f;fill-opacity:1;fill-rule:nonzero;stroke:none"
         id="path54" /><path
         d="m 4059.38,4765.05 c 15.12,-3.8 30.24,-7.6 45.37,-11.4 9.36,-2.35 13.36,12.11 3.98,14.47 -15.12,3.79 -30.24,7.6 -45.36,11.4 -9.37,2.35 -13.36,-12.11 -3.99,-14.47"
         style="fill:#fc981f;fill-opacity:1;fill-rule:nonzero;stroke:none"
         id="path56" /><path
         d="m 4708.55,4393.52 c 18.87,-3.97 37.74,-7.94 56.61,-11.91 9.42,-1.98 13.44,12.48 3.98,14.46 -18.87,3.97 -37.73,7.95 -56.6,11.91 -9.41,1.98 -13.44,-12.47 -3.99,-14.46"
         style="fill:#fc981f;fill-opacity:1;fill-rule:nonzero;stroke:none"
         id="path58" /><path
         d="m 7730,870 c 134.98,290.14 -502.63,525.45 -647.01,360.21 C 6938.61,1064.96 7207.23,905.07 7310,860 c 234.77,-102.961 374.8,-87.148 420,10"
         style="fill:#18a795;fill-opacity:1;fill-rule:nonzero;stroke:none"
         id="path60" /><path
         d="m 2293.56,4644.88 c -17.5,16.61 -35.18,33 -52.78,49.5 -7.04,6.59 -17.67,-3.99 -10.6,-10.61 17.59,-16.5 35.28,-32.89 52.77,-49.5 7,-6.64 17.63,3.94 10.61,10.61"
         style="fill:#011d44;fill-opacity:1;fill-rule:nonzero;stroke:none"
         id="path62" /><path
         d="m 2149.64,5007.43 c -13.1,12.48 -26.19,24.96 -39.28,37.44 -6.99,6.66 -17.62,-3.93 -10.61,-10.61 13.09,-12.48 26.19,-24.96 39.28,-37.44 6.99,-6.66 17.61,3.93 10.61,10.61"
         style="fill:#011d44;fill-opacity:1;fill-rule:nonzero;stroke:none"
         id="path64" /><path
         d="m 2170.88,4841.63 c -12.99,12.59 -25.98,25.18 -38.97,37.77 -6.93,6.72 -17.55,-3.88 -10.61,-10.61 12.99,-12.59 25.99,-25.18 38.97,-37.77 6.94,-6.71 17.56,3.88 10.61,10.61"
         style="fill:#011d44;fill-opacity:1;fill-rule:nonzero;stroke:none"
         id="path66" /><path
         d="m 2430.08,4604.5 c -13.09,12.48 -26.18,24.96 -39.28,37.44 -6.99,6.66 -17.61,-3.93 -10.6,-10.61 13.09,-12.48 26.18,-24.96 39.28,-37.44 6.98,-6.66 17.61,3.93 10.6,10.61"
         style="fill:#011d44;fill-opacity:1;fill-rule:nonzero;stroke:none"
         id="path68" /><path
         d="m 2451.33,4438.71 c -13,12.58 -25.98,25.17 -38.97,37.76 -6.94,6.72 -17.56,-3.87 -10.61,-10.61 12.99,-12.58 25.98,-25.17 38.97,-37.76 6.94,-6.72 17.55,3.87 10.61,10.61"
         style="fill:#011d44;fill-opacity:1;fill-rule:nonzero;stroke:none"
         id="path70" /><path
         d="m 4901.69,-53.5195 c 25.94,25.2187 51.86,50.42966 77.8,75.6601 6.94,6.7383 -3.68,17.3399 -10.6,10.5977 -25.94,-25.20705 -51.88,-50.4375 -77.81,-75.6485 -6.93,-6.75 3.68,-17.3398 10.61,-10.6093"
         style="fill:#011d44;fill-opacity:1;fill-rule:nonzero;stroke:none"
         id="path72" /><path
         d="m 4991.45,138.059 c 16.89,17.203 33.77,34.421 50.67,51.64 6.77,6.891 -3.83,17.512 -10.61,10.602 -16.89,-17.211 -33.78,-34.422 -50.67,-51.641 -6.77,-6.89 3.83,-17.512 10.61,-10.601"
         style="fill:#011d44;fill-opacity:1;fill-rule:nonzero;stroke:none"
         id="path74" /><path
         d="m 5141.45,18.0586 c 16.89,17.2031 33.77,34.4219 50.67,51.6406 6.77,6.8906 -3.83,17.5117 -10.61,10.6016 -16.89,-17.211 -33.78,-34.4219 -50.67,-51.6406 -6.77,-6.8907 3.83,-17.5118 10.61,-10.6016"
         style="fill:#011d44;fill-opacity:1;fill-rule:nonzero;stroke:none"
         id="path76" /><path
         d="m 5210.27,239.02 c 12.8,12.8 25.59,25.589 38.38,38.371 6.84,6.839 -3.77,17.449 -10.6,10.609 -12.8,-12.789 -25.59,-25.578 -38.38,-38.371 -6.84,-6.84 3.77,-17.438 10.6,-10.609"
         style="fill:#011d44;fill-opacity:1;fill-rule:nonzero;stroke:none"
         id="path78" /><path
         d="m 5223.93,3342.1 c -669.68,0.08 -534.11,607.71 -183.93,647.9 35.63,4.09 71.54,6.03 107.45,6.03 578.8,0 1149.4,-504.21 292.55,-636.03 -79.87,-12.29 -151.63,-17.9 -216.07,-17.9"
         style="fill:#fff5f2;fill-opacity:1;fill-rule:nonzero;stroke:none"
         id="path80" /><path
         d="m 3159.32,367.711 c -129.05,0.019 -103.59,183.891 -16.24,193.91 8.69,1 16.88,1.469 24.6,1.469 139.41,0 125.08,-154.418 83.94,-172.418 -36.94,-16.16 -67.47,-22.961 -92.3,-22.961"
         style="fill:#fff1ee;fill-opacity:1;fill-rule:nonzero;stroke:none"
         id="path82" /><path
         d="m 595.066,3135.8 c -224.043,0.04 -179.847,319.25 -28.191,336.66 15.086,1.73 29.297,2.55 42.707,2.55 242.035,0 217.156,-268.1 145.734,-299.35 -64.128,-28.06 -117.136,-39.87 -160.25,-39.86"
         style="fill:#feead2;fill-opacity:1;fill-rule:nonzero;stroke:none"
         id="path84" /><path
         d="m 6904.98,3391.33 c -11.85,-19.52 -23.69,-39.04 -35.54,-58.57 -5.02,-8.27 7.95,-15.82 12.96,-7.57 11.84,19.52 23.68,39.04 35.53,58.56 5.02,8.28 -7.95,15.83 -12.95,7.58"
         style="fill:#fc5b23;fill-opacity:1;fill-rule:nonzero;stroke:none"
         id="path86" /><path
         d="m 6904.43,3232.35 c -13.29,-16.36 -26.58,-32.72 -39.88,-49.07 -6.03,-7.43 4.52,-18.11 10.62,-10.61 13.29,16.36 26.58,32.72 39.87,49.07 6.04,7.43 -4.51,18.11 -10.61,10.61"
         style="fill:#fc5b23;fill-opacity:1;fill-rule:nonzero;stroke:none"
         id="path88" /><path
         d="m 6865.98,3078.18 c -13.8,-15.94 -27.61,-31.89 -41.41,-47.83 -6.29,-7.27 4.28,-17.92 10.61,-10.61 13.8,15.95 27.6,31.89 41.4,47.84 6.29,7.26 -4.28,17.92 -10.6,10.6"
         style="fill:#fc5b23;fill-opacity:1;fill-rule:nonzero;stroke:none"
         id="path90" /><path
         d="m 6063.28,883.711 c 149.73,-160.551 448.82,-69.551 564.76,87.699 125.28,169.93 41.66,418.08 -154.26,488.92 -9.09,3.29 -13.01,-11.2 -3.99,-14.46 189.89,-68.66 265.7,-310.59 141.53,-471.53 -112.47,-145.789 -395.83,-231.86 -537.43,-80.02 -6.6,7.082 -17.19,-3.55 -10.61,-10.609"
         style="fill:#ffe4dd;fill-opacity:1;fill-rule:nonzero;stroke:none"
         id="path92" /><path
         d="m 1507.31,4409.58 c -149.72,160.55 -448.81,69.56 -564.751,-87.69 -125.278,-169.93 -41.664,-418.09 154.251,-488.93 9.1,-3.29 13.01,11.2 3.99,14.47 -189.882,68.65 -265.695,310.58 -141.523,471.53 112.473,145.78 395.833,231.85 537.423,80.02 6.61,-7.08 17.2,3.54 10.61,10.6"
         style="fill:#ffe4dd;fill-opacity:1;fill-rule:nonzero;stroke:none"
         id="path94" /><path
         d="m 192.426,3313.08 c -19.008,23.65 -2.469,63.86 15.031,83.5 20.883,23.43 45.199,18.93 59.691,-7.61 10.594,-19.4 18.946,-52.48 5.043,-72.29 -13.531,-19.26 -63.414,-18.49 -79.765,-3.6 -7.121,6.49 -17.762,-4.1 -10.606,-10.61 22.282,-20.29 79.368,-22.02 99.883,1.94 22.695,26.51 11.496,74.13 -6.43,99.97 -50.937,73.41 -137.593,-46.99 -93.453,-101.91 6.047,-7.52 16.602,3.15 10.606,10.61"
         style="fill:#ffe4dd;fill-opacity:1;fill-rule:nonzero;stroke:none"
         id="path96" /><path
         d="m 5767.12,4267.77 c -27.57,30.2 5.21,106.64 45.63,112.83 42.02,6.43 71.32,-83.91 41.06,-113.76 -15.43,-15.22 -72.4,-14.71 -86.69,0.93"
         style="fill:#ffffff;fill-opacity:1;fill-rule:nonzero;stroke:none"
         id="path98" /><path
         d="m -50.3828,5136.63 c -161.2622,-118.25 -101.3552,-361.42 71.3906,-432.08 197.3902,-80.74 402.0512,53.97 476.3872,238.75 31.968,79.47 37.371,192.13 -56.899,229.73 -86.176,34.38 -192.937,-5.85 -252.391,-71.84 -61.015,-67.72 -73.574,-165.37 -15.351,-239 46.422,-58.69 129.094,-93.03 200,-58.63 55.144,26.75 96.34,85.95 128.676,136.07 36.074,55.9 63.691,118.31 72.371,184.71 14.121,108.12 -27.961,221.55 -123.586,278.95 -8.301,4.98 -15.852,-7.99 -7.574,-12.96 180.738,-108.47 123.511,-343.78 17.488,-483.07 -55.887,-73.42 -131.211,-134.86 -224.012,-80.68 -83.07,48.49 -110.687,149.84 -60.863,232.49 45.637,75.7 144.117,124.43 232.129,107.76 115.41,-21.86 108.394,-146.68 70.472,-231.25 -69.125,-154.16 -230.097,-272.24 -404.0112,-232.05 -90.9024,21.01 -171.4922,84.05 -195.9458,176.54 -23.464,88.77 4.028,188.42 79.2934,243.61 7.707,5.65 0.2305,18.68 -7.5742,12.95"
         style="fill:#ffe4dd;fill-opacity:1;fill-rule:nonzero;stroke:none"
         id="path100" /></g></g></svg>
